<?xml version="1.0" standalone="no"?>
<!DOCTYPE svg PUBLIC "-//W3C//DTD SVG 20010904//EN"
 "http://www.w3.org/TR/2001/REC-SVG-20010904/DTD/svg10.dtd">
<svg version="1.0" xmlns="http://www.w3.org/2000/svg"
 width="1280.000000pt" height="1058.000000pt" viewBox="0 0 1280.000000 1058.000000"
 preserveAspectRatio="xMidYMid meet">
<metadata>
Created by potrace 1.15, written by Peter Selinger 2001-2017
</metadata>
<g transform="translate(0.000000,1058.000000) scale(0.100000,-0.100000)"
fill="#000000" stroke="none">
<path d="M4450 10569 c-148 -29 -246 -115 -284 -249 -12 -42 -31 -374 -81
-1426 -36 -754 -65 -1407 -65 -1451 0 -217 113 -349 327 -382 102 -16 4004
-16 4106 0 214 33 327 165 327 382 0 44 -29 695 -65 1446 -50 1068 -68 1380
-81 1428 -29 111 -105 192 -221 236 l-58 22 -1930 1 c-1091 1 -1950 -2 -1975
-7z"/>
<path d="M3735 9657 l-208 -512 -108 -1400 c-59 -770 -105 -1403 -103 -1407 3
-5 73 -8 155 -8 145 0 150 1 159 23 5 12 43 191 84 397 l74 375 32 590 c17
325 39 754 50 955 64 1181 80 1493 77 1496 -2 2 -97 -227 -212 -509z"/>
<path d="M8854 10080 c4 -52 20 -349 36 -660 41 -774 109 -2051 116 -2185 5
-83 40 -281 145 -810 77 -385 141 -710 144 -722 5 -22 9 -23 120 -23 l115 0 0
43 c-1 23 -58 803 -129 1732 l-128 1690 -207 510 c-114 280 -210 512 -213 515
-3 3 -2 -38 1 -90z"/>
<path d="M4076 6774 c-96 -35 -149 -105 -225 -297 -28 -70 -51 -132 -51 -137
0 -6 270 -10 703 -12 767 -4 742 -2 873 -64 208 -98 396 -360 624 -867 l75
-168 489 0 488 1 62 90 c74 109 181 219 256 265 30 18 91 46 135 62 l80 28
838 3 c652 2 838 5 834 15 -3 7 -85 215 -182 462 -98 251 -191 473 -210 502
-19 28 -49 63 -68 77 -78 60 92 56 -2401 55 -1954 0 -2287 -2 -2320 -15z"/>
<path d="M1185 5998 c-79 -15 -169 -63 -214 -114 -50 -57 -78 -131 -86 -226
-16 -201 -135 -2819 -130 -2858 25 -172 137 -280 325 -311 73 -12 4037 -12
4110 0 192 32 304 142 324 321 4 30 -25 696 -63 1480 -75 1550 -69 1479 -135
1570 -40 55 -93 93 -172 123 l-59 22 -1925 1 c-1195 1 -1944 -2 -1975 -8z"/>
<path d="M5586 5558 c2 -23 11 -173 19 -333 8 -159 33 -630 55 -1045 22 -415
49 -926 60 -1135 11 -209 22 -411 25 -449 4 -38 78 -425 165 -860 87 -435 157
-792 156 -794 -2 -1 -94 231 -206 515 -112 285 -216 544 -232 576 -35 71 -89
132 -142 160 l-41 22 -2310 0 -2310 0 -40 -22 c-42 -22 -100 -79 -129 -126
-14 -23 -344 -849 -423 -1060 -14 -37 -27 -66 -28 -65 -2 2 69 361 156 798
149 742 160 806 169 960 10 171 22 398 90 1680 22 415 45 845 51 955 6 111 9
214 7 229 -2 20 -61 -116 -210 -482 l-207 -510 -132 -1720 c-132 -1713 -132
-1721 -117 -1801 38 -191 135 -305 314 -368 l79 -28 2730 0 2730 0 79 28 c177
62 276 178 313 365 16 80 15 88 -117 1802 l-132 1722 -205 507 c-113 278 -209
510 -213 514 -4 5 -6 -11 -4 -35z"/>
<path d="M7756 5349 c-194 -21 -314 -135 -338 -323 -5 -39 -38 -694 -74 -1456
-48 -1045 -62 -1398 -54 -1438 29 -156 130 -258 288 -291 76 -16 4100 -16
4174 0 116 25 208 90 253 179 51 100 51 55 -19 1550 -36 762 -70 1420 -75
1462 -25 190 -141 296 -351 318 -116 12 -3688 11 -3804 -1z"/>
<path d="M6998 4427 l-207 -512 -132 -1710 c-115 -1500 -130 -1719 -120 -1781
30 -201 136 -333 318 -396 l68 -23 2735 0 c2990 0 2773 -4 2894 59 123 64 202
176 232 329 l17 88 -131 1717 -132 1717 -208 512 c-161 398 -208 504 -210 479
-2 -18 6 -208 18 -422 43 -807 81 -1527 110 -2054 l29 -545 155 -775 c86 -426
158 -786 161 -800 11 -52 -16 15 -215 520 -111 283 -213 537 -227 563 -34 69
-86 121 -146 148 l-52 24 -2290 0 -2290 0 -52 -24 c-59 -26 -111 -78 -144
-142 -17 -35 -290 -719 -411 -1032 -17 -43 -31 -77 -33 -75 -1 2 69 356 156
788 l159 785 25 450 c25 454 92 1724 120 2260 8 160 16 307 18 328 1 20 0 37
-3 37 -3 0 -98 -231 -212 -513z"/>
</g>
</svg>
