<?xml version="1.0" encoding="utf-8"?>
<!-- Uploaded to: SVG Repo, www.svgrepo.com, Generator: SVG Repo Mixer Tools -->
<!DOCTYPE svg PUBLIC "-//W3C//DTD SVG 1.1//EN" "http://www.w3.org/Graphics/SVG/1.1/DTD/svg11.dtd">
<svg version="1.1" id="Capa_1" xmlns="http://www.w3.org/2000/svg" xmlns:xlink="http://www.w3.org/1999/xlink" 
	 width="800px" height="800px" viewBox="0 0 15 15" enable-background="new 0 0 15 15" xml:space="preserve">
<g>
	<path d="M13.12,8.208c-0.094-0.094-0.281-0.094-0.375,0c-0.703,0.702-1.253,1.058-1.635,1.058c-0.159,0-0.294-0.061-0.424-0.19
		c-0.205-0.206-0.252-0.43-0.151-0.724c0.109-0.32,0.383-0.697,0.837-1.151c0.634-0.633,1.033-1.192,1.223-1.708
		c0.254-0.689,0.121-1.321-0.383-1.827c-0.304-0.303-0.644-0.477-1.011-0.514c-0.317-0.032-0.648,0.035-0.994,0.2
		c-0.572,0.273-1.101,0.774-1.55,1.223c-0.098,0.098-0.098,0.277,0,0.375c0.094,0.094,0.281,0.094,0.375,0
		C9.45,4.532,9.938,4.067,10.435,3.83c0.555-0.264,0.991-0.2,1.402,0.211c0.357,0.357,0.442,0.772,0.261,1.269
		c-0.164,0.443-0.523,0.939-1.101,1.516c-0.512,0.512-0.827,0.955-0.964,1.355C9.866,8.672,9.96,9.099,10.312,9.451
		c0.231,0.229,0.5,0.346,0.799,0.346c0.543,0,1.182-0.386,2.01-1.214C13.218,8.485,13.218,8.306,13.12,8.208z"/>
	<path fill="#030104" d="M2.575,6.882c-1.161,1.161-1.161,3.042,0,4.202c1.161,1.161,3.042,1.161,4.202,0l0.676-0.676L3.25,6.206
		L2.575,6.882z"/>
	<path fill="#030104" d="M6.021,7.103C5.877,6.814,5.922,6.456,6.163,6.215l0.501-0.502c0.241-0.241,0.6-0.286,0.889-0.142
		l0.529-0.529c-1.166-0.899-2.84-0.827-3.908,0.241L3.688,5.769l1.833,1.833L6.021,7.103z"/>
	<path fill="#030104" d="M8.066,6.119c0.106,0.275,0.049,0.6-0.173,0.823L7.392,7.444C7.169,7.667,6.844,7.724,6.568,7.617
		L6.053,8.133l1.838,1.838l0.485-0.485c1.07-1.069,1.142-2.748,0.237-3.913L8.066,6.119z"/>
	<path fill="#030104" d="M7.21,5.941c-0.084,0-0.165,0.033-0.226,0.093L6.483,6.536c-0.124,0.124-0.124,0.326,0,0.449l0.137,0.138
		c0.061,0.061,0.14,0.094,0.225,0.094s0.165-0.034,0.226-0.094l0.5-0.501c0.061-0.06,0.094-0.14,0.094-0.225
		S7.632,6.232,7.572,6.172L7.434,6.034C7.375,5.974,7.295,5.941,7.21,5.941z"/>
</g>
</svg>